<svg width="32" height="34" viewBox="0 0 32 34" fill="none" xmlns="http://www.w3.org/2000/svg">
<path fill-rule="evenodd" clip-rule="evenodd" d="M30.7051 8.77995C30.6346 7.54124 29.6266 6.5701 28.3969 6.5701H22.4701V6.36199C22.4701 2.85398 19.5672 0 15.9991 0C12.4309 0 9.52801 2.85398 9.52801 6.36199V6.5701H3.60124C2.38162 6.5701 1.36358 7.54124 1.29302 8.77995L0.0028423 31.6811C-0.0273963 32.2757 0.184274 32.8406 0.607615 33.2766C1.05112 33.7324 1.66597 34 2.30098 34H29.6972C30.3322 34 30.947 33.7324 31.3905 33.2766C31.8139 32.8307 32.0356 32.2658 31.9953 31.6811L30.7051 8.77995ZM11.5439 6.36199C11.5439 3.94404 13.5397 1.98193 15.9991 1.98193C18.4585 1.98193 20.4542 3.94404 20.4542 6.36199V6.5701H11.554V6.36199H11.5439ZM29.929 31.919C29.8685 31.9784 29.7778 32.0181 29.6972 32.0181H2.30098C2.22034 32.0181 2.12963 31.9784 2.06915 31.919C2.03891 31.8892 2.00867 31.8397 2.00867 31.7901L3.30893 8.88895C3.31901 8.72049 3.41981 8.55203 3.60124 8.55203H9.52801V10.534C9.07443 10.8114 8.76197 11.3069 8.76197 11.8718C8.76197 12.7438 9.47762 13.4474 10.3646 13.4474C11.2516 13.4474 11.9673 12.7438 11.9673 11.8718C11.9673 11.4556 11.806 11.0889 11.5338 10.8015V8.55203H20.4341V10.6529C20.0712 10.9403 19.8394 11.3763 19.8394 11.8718C19.8394 12.7438 20.555 13.4474 21.442 13.4474C22.329 13.4474 23.0447 12.7438 23.0447 11.8718C23.0447 11.3763 22.8129 10.9403 22.45 10.6529V8.55203H28.3768C28.5481 8.55203 28.659 8.72049 28.6691 8.88895L29.9693 31.7901C29.9895 31.8496 29.9492 31.8992 29.929 31.919Z" fill="#E2EAD5"/>
</svg>
