<svg width="25" height="27" viewBox="0 0 25 27" fill="none" xmlns="http://www.w3.org/2000/svg">
<path fill-rule="evenodd" clip-rule="evenodd" d="M22.9091 6.645C22.8567 5.7075 22.1078 4.9725 21.1943 4.9725H16.7912V4.815C16.7912 2.16 14.6345 0 11.9837 0C9.33282 0 7.1762 2.16 7.1762 4.815V4.9725H2.77309C1.867 4.9725 1.11069 5.7075 1.05827 6.645L0.0997678 23.9775C0.077303 24.4275 0.234557 24.855 0.549065 25.185C0.878549 25.53 1.33533 25.7325 1.8071 25.7325H22.1603C22.632 25.7325 23.0888 25.53 23.4183 25.185C23.7328 24.8475 23.8975 24.42 23.8676 23.9775L22.9091 6.645ZM8.67385 4.815C8.67385 2.985 10.1565 1.5 11.9837 1.5C13.8108 1.5 15.2935 2.985 15.2935 4.815V4.9725H8.68134V4.815H8.67385ZM22.3325 24.1575C22.2876 24.2025 22.2202 24.2325 22.1603 24.2325H1.8071C1.74719 24.2325 1.6798 24.2025 1.63487 24.1575C1.6124 24.135 1.58994 24.0975 1.58994 24.06L2.55592 6.72753C2.56341 6.60003 2.6383 6.47253 2.77309 6.47253H7.1762V7.97253C6.83922 8.18253 6.60709 8.55753 6.60709 8.98503C6.60709 9.64503 7.13875 10.1775 7.79772 10.1775C8.45669 10.1775 8.98836 9.64503 8.98836 8.98503C8.98836 8.67003 8.86855 8.39253 8.66636 8.17503V6.47253H15.2785V8.06253C15.0089 8.28003 14.8367 8.61003 14.8367 8.98503C14.8367 9.64503 15.3684 10.1775 16.0273 10.1775C16.6863 10.1775 17.218 9.64503 17.218 8.98503C17.218 8.61003 17.0458 8.28003 16.7762 8.06253V6.47253H21.1793C21.3066 6.47253 21.389 6.60003 21.3964 6.72753L22.3624 24.06C22.3774 24.105 22.3475 24.1425 22.3325 24.1575Z" fill="#292323"/>
</svg>
