<svg width="160" height="160" viewBox="0 0 160 160" fill="none" xmlns="http://www.w3.org/2000/svg">
<path fill-rule="evenodd" clip-rule="evenodd" d="M80 160C124.183 160 160 124.183 160 80C160 35.8172 124.183 0 80 0C35.8172 0 0 35.8172 0 80C0 124.183 35.8172 160 80 160Z" fill="#292323"/>
<path fill-rule="evenodd" clip-rule="evenodd" d="M94.4628 45.86C94.3928 44.61 93.3928 43.63 92.1728 43.63H86.2928V43.42C86.2928 39.88 83.4128 37 79.8728 37C76.3328 37 73.4528 39.88 73.4528 43.42V43.63H67.5728C66.3628 43.63 65.3528 44.61 65.2828 45.86L64.0028 68.97C63.9728 69.57 64.1828 70.14 64.6028 70.58C65.0428 71.04 65.6528 71.31 66.2828 71.31H93.4628C94.0928 71.31 94.7028 71.04 95.1428 70.58C95.5628 70.13 95.7828 69.56 95.7428 68.97L94.4628 45.86ZM75.4528 43.42C75.4528 40.98 77.4328 39 79.8728 39C82.3128 39 84.2928 40.98 84.2928 43.42V43.63H75.4628V43.42H75.4528ZM93.6928 69.21C93.6328 69.27 93.5428 69.31 93.4628 69.31H66.2828C66.2028 69.31 66.1128 69.27 66.0528 69.21C66.0228 69.18 65.9928 69.13 65.9928 69.08L67.2828 45.97C67.2928 45.8 67.3928 45.63 67.5728 45.63H73.4528V47.63C73.0028 47.91 72.6928 48.41 72.6928 48.98C72.6928 49.86 73.4028 50.57 74.2828 50.57C75.1628 50.57 75.8728 49.86 75.8728 48.98C75.8728 48.56 75.7128 48.19 75.4428 47.9V45.63H84.2728V47.75C83.9128 48.04 83.6828 48.48 83.6828 48.98C83.6828 49.86 84.3928 50.57 85.2728 50.57C86.1528 50.57 86.8628 49.86 86.8628 48.98C86.8628 48.48 86.6328 48.04 86.2728 47.75V45.63H92.1528C92.3228 45.63 92.4328 45.8 92.4428 45.97L93.7328 69.08C93.7528 69.14 93.7128 69.19 93.6928 69.21Z" fill="white"/>
<path d="M39.1979 97.0903H40.9469L45.9168 109.696L50.9081 97.0903H52.6571L46.706 112H45.149L39.1979 97.0903ZM58.3304 96.9623H60.0581L58.3517 100.588H56.88L58.3304 96.9623ZM56.56 112.32C55.3229 112.32 54.3417 112.014 53.6165 111.403C52.9055 110.777 52.55 109.924 52.55 108.843C52.55 107.72 52.8984 106.859 53.5951 106.262C54.2919 105.651 55.3015 105.345 56.624 105.345C58.1029 105.345 59.3756 105.651 60.4421 106.262V105.494C60.4421 104.57 60.179 103.887 59.6529 103.447C59.1267 102.992 58.2948 102.764 57.1572 102.764C55.9485 102.764 54.8323 102.992 53.8084 103.447V102.06C54.235 101.875 54.7754 101.726 55.4295 101.612C56.0836 101.499 56.7093 101.442 57.3066 101.442C58.9276 101.442 60.1292 101.811 60.9113 102.551C61.6934 103.276 62.0845 104.286 62.0845 105.58V112H60.5487V110.678C59.6529 111.772 58.3233 112.32 56.56 112.32ZM56.9653 110.976C57.7332 110.976 58.4228 110.827 59.0343 110.528C59.66 110.215 60.1292 109.782 60.4421 109.227V107.585C59.8875 107.258 59.3329 107.023 58.7783 106.881C58.238 106.724 57.6265 106.646 56.9439 106.646C55.977 106.646 55.2731 106.831 54.8323 107.201C54.4057 107.556 54.1924 108.104 54.1924 108.843C54.1924 110.265 55.1167 110.976 56.9653 110.976ZM68.2035 112.32C67.5352 112.32 66.8171 112.22 66.0492 112.021C65.2813 111.836 64.6841 111.602 64.2575 111.317V109.931C64.7978 110.258 65.4164 110.521 66.1132 110.72C66.8242 110.919 67.5067 111.019 68.1609 111.019C69.0425 111.019 69.6753 110.898 70.0592 110.656C70.4574 110.4 70.6565 110.023 70.6565 109.526C70.6565 109.142 70.5712 108.843 70.4005 108.63C70.2299 108.402 69.9455 108.203 69.5473 108.033C69.1491 107.862 68.5306 107.663 67.6916 107.435C66.8668 107.208 66.2056 106.973 65.7079 106.731C65.2244 106.476 64.8547 106.156 64.5987 105.772C64.3428 105.388 64.2148 104.897 64.2148 104.3C64.2148 103.376 64.5845 102.672 65.324 102.188C66.0776 101.69 67.073 101.442 68.3102 101.442C68.9785 101.442 69.6042 101.506 70.1872 101.634C70.7844 101.747 71.2821 101.911 71.6803 102.124V103.511C71.2679 103.283 70.7702 103.105 70.1872 102.977C69.6042 102.835 68.9998 102.764 68.3742 102.764C67.5494 102.764 66.9237 102.885 66.4971 103.127C66.0705 103.368 65.8572 103.76 65.8572 104.3C65.8572 104.67 65.9283 104.954 66.0705 105.153C66.2269 105.352 66.5042 105.537 66.9024 105.708C67.3148 105.864 67.9689 106.063 68.8647 106.305C70.1445 106.66 71.0333 107.08 71.531 107.563C72.0429 108.033 72.2989 108.687 72.2989 109.526C72.2989 110.393 71.9576 111.076 71.275 111.573C70.6067 112.071 69.5829 112.32 68.2035 112.32ZM79.8895 96.9623H81.6173L79.9109 100.588H78.4391L79.8895 96.9623ZM78.1191 112.32C76.882 112.32 75.9008 112.014 75.1756 111.403C74.4646 110.777 74.1091 109.924 74.1091 108.843C74.1091 107.72 74.4575 106.859 75.1543 106.262C75.851 105.651 76.8607 105.345 78.1831 105.345C79.662 105.345 80.9347 105.651 82.0012 106.262V105.494C82.0012 104.57 81.7381 103.887 81.212 103.447C80.6858 102.992 79.854 102.764 78.7164 102.764C77.5077 102.764 76.3914 102.992 75.3676 103.447V102.06C75.7942 101.875 76.3345 101.726 76.9886 101.612C77.6428 101.499 78.2684 101.442 78.8657 101.442C80.4868 101.442 81.6884 101.811 82.4705 102.551C83.2526 103.276 83.6436 104.286 83.6436 105.58V112H82.1078V110.678C81.212 111.772 79.8824 112.32 78.1191 112.32ZM78.5244 110.976C79.2923 110.976 79.982 110.827 80.5934 110.528C81.2191 110.215 81.6884 109.782 82.0012 109.227V107.585C81.4466 107.258 80.892 107.023 80.3375 106.881C79.7971 106.724 79.1856 106.646 78.5031 106.646C77.5361 106.646 76.8322 106.831 76.3914 107.201C75.9648 107.556 75.7515 108.104 75.7515 108.843C75.7515 110.265 76.6758 110.976 78.5244 110.976ZM86.513 101.762H88.1127V103.767C88.9375 102.43 90.4804 101.762 92.7414 101.762V103.084C90.2671 103.084 88.7384 103.902 88.1554 105.537V112H86.513V101.762ZM94.8659 96.2371H96.5083V112H94.8659V96.2371ZM104.844 96.9623H106.572L104.865 100.588H103.394L104.844 96.9623ZM103.074 112.32C101.836 112.32 100.855 112.014 100.13 111.403C99.419 110.777 99.0635 109.924 99.0635 108.843C99.0635 107.72 99.4119 106.859 100.109 106.262C100.805 105.651 101.815 105.345 103.138 105.345C104.616 105.345 105.889 105.651 106.956 106.262V105.494C106.956 104.57 106.693 103.887 106.166 103.447C105.64 102.992 104.808 102.764 103.671 102.764C102.462 102.764 101.346 102.992 100.322 103.447V102.06C100.749 101.875 101.289 101.726 101.943 101.612C102.597 101.499 103.223 101.442 103.82 101.442C105.441 101.442 106.643 101.811 107.425 102.551C108.207 103.276 108.598 104.286 108.598 105.58V112H107.062V110.678C106.166 111.772 104.837 112.32 103.074 112.32ZM103.479 110.976C104.247 110.976 104.936 110.827 105.548 110.528C106.174 110.215 106.643 109.782 106.956 109.227V107.585C106.401 107.258 105.846 107.023 105.292 106.881C104.752 106.724 104.14 106.646 103.458 106.646C102.491 106.646 101.787 106.831 101.346 107.201C100.919 107.556 100.706 108.104 100.706 108.843C100.706 110.265 101.63 110.976 103.479 110.976ZM114.717 112.32C114.049 112.32 113.331 112.22 112.563 112.021C111.795 111.836 111.198 111.602 110.771 111.317V109.931C111.311 110.258 111.93 110.521 112.627 110.72C113.338 110.919 114.02 111.019 114.674 111.019C115.556 111.019 116.189 110.898 116.573 110.656C116.971 110.4 117.17 110.023 117.17 109.526C117.17 109.142 117.085 108.843 116.914 108.63C116.743 108.402 116.459 108.203 116.061 108.033C115.663 107.862 115.044 107.663 114.205 107.435C113.38 107.208 112.719 106.973 112.221 106.731C111.738 106.476 111.368 106.156 111.112 105.772C110.856 105.388 110.728 104.897 110.728 104.3C110.728 103.376 111.098 102.672 111.838 102.188C112.591 101.69 113.587 101.442 114.824 101.442C115.492 101.442 116.118 101.506 116.701 101.634C117.298 101.747 117.796 101.911 118.194 102.124V103.511C117.781 103.283 117.284 103.105 116.701 102.977C116.118 102.835 115.513 102.764 114.888 102.764C114.063 102.764 113.437 102.885 113.011 103.127C112.584 103.368 112.371 103.76 112.371 104.3C112.371 104.67 112.442 104.954 112.584 105.153C112.741 105.352 113.018 105.537 113.416 105.708C113.828 105.864 114.482 106.063 115.378 106.305C116.658 106.66 117.547 107.08 118.045 107.563C118.556 108.033 118.812 108.687 118.812 109.526C118.812 110.393 118.471 111.076 117.789 111.573C117.12 112.071 116.096 112.32 114.717 112.32Z" fill="#EFEFEF"/>
</svg>
