<svg width="40" height="40" viewBox="0 0 40 40" fill="none" xmlns="http://www.w3.org/2000/svg">
<rect width="40" height="40" rx="20" fill="#292323"/>
<path d="M14.5673 20.1348C13.6197 20.1348 12.7478 19.9073 11.9518 19.4525C11.1557 18.9786 10.5208 18.3437 10.047 17.5477C9.59208 16.7516 9.36464 15.8798 9.36464 14.9321C9.36464 13.9844 9.59208 13.1126 10.047 12.3165C10.5208 11.5015 11.1557 10.8666 11.9518 10.4117C12.7478 9.9379 13.6197 9.70098 14.5673 9.70098C15.515 9.70098 16.3869 9.9379 17.1829 10.4117C17.9979 10.8666 18.6328 11.5015 19.0877 12.3165C19.5615 13.1126 19.7985 13.9844 19.7985 14.9321C19.7985 15.8798 19.5615 16.7516 19.0877 17.5477C18.6328 18.3437 17.9979 18.9786 17.1829 19.4525C16.3869 19.9073 15.515 20.1348 14.5673 20.1348ZM24.7168 10.1274H27.5314L16.529 30H13.7144L24.7168 10.1274ZM14.5673 18.031C15.4392 18.031 16.1594 17.7372 16.728 17.1496C17.3156 16.5621 17.6093 15.8419 17.6093 14.989C17.6093 14.1171 17.3156 13.3874 16.728 12.7998C16.1594 12.2123 15.4392 11.9185 14.5673 11.9185C13.6955 11.9185 12.9658 12.2123 12.3782 12.7998C11.8096 13.3874 11.5253 14.1171 11.5253 14.989C11.5253 15.8419 11.8096 16.5621 12.3782 17.1496C12.9658 17.7372 13.6955 18.031 14.5673 18.031ZM26.6501 30.4265C25.7024 30.4265 24.8306 30.199 24.0345 29.7441C23.2385 29.2703 22.6035 28.6354 22.1297 27.8393C21.6748 27.0433 21.4474 26.1714 21.4474 25.2238C21.4474 24.2761 21.6748 23.4042 22.1297 22.6082C22.6035 21.7932 23.2385 21.1583 24.0345 20.7034C24.8306 20.2296 25.7024 19.9926 26.6501 19.9926C27.5977 19.9926 28.4696 20.2296 29.2656 20.7034C30.0806 21.1583 30.7156 21.7932 31.1705 22.6082C31.6443 23.4042 31.8812 24.2761 31.8812 25.2238C31.8812 26.1714 31.6443 27.0433 31.1705 27.8393C30.7156 28.6354 30.0806 29.2703 29.2656 29.7441C28.4696 30.199 27.5977 30.4265 26.6501 30.4265ZM26.6217 28.3226C27.4935 28.3226 28.2232 28.0289 28.8108 27.4413C29.3983 26.8537 29.6921 26.1335 29.6921 25.2806C29.6921 24.4088 29.3983 23.6791 28.8108 23.0915C28.2232 22.504 27.4935 22.2102 26.6217 22.2102C25.7688 22.2102 25.0485 22.504 24.461 23.0915C23.8734 23.6791 23.5796 24.4088 23.5796 25.2806C23.5796 26.1335 23.8734 26.8537 24.461 27.4413C25.0485 28.0289 25.7688 28.3226 26.6217 28.3226Z" fill="white"/>
</svg>
